<?xml version="1.0" encoding="UTF-8" standalone="no"?>
<svg
   xmlns:dc="http://purl.org/dc/elements/1.1/"
   xmlns:cc="http://creativecommons.org/ns#"
   xmlns:rdf="http://www.w3.org/1999/02/22-rdf-syntax-ns#"
   xmlns:svg="http://www.w3.org/2000/svg"
   xmlns="http://www.w3.org/2000/svg"
   id="svg2809"
   version="1.1"
   height="1792"
   width="1536">
  <metadata
     id="metadata2815">
    <rdf:RDF>
      <cc:Work
         rdf:about="">
        <dc:format>image/svg+xml</dc:format>
        <dc:type
           rdf:resource="http://purl.org/dc/dcmitype/StillImage" />
        <dc:title></dc:title>
      </cc:Work>
    </rdf:RDF>
  </metadata>
  <defs
     id="defs2813" />
  <path
     id="path2807"
     d="m 1468,380 c 37,37 68,111 68,164 v 1152 c 0,53 -43,96 -96,96 H 96 C 43,1792 0,1749 0,1696 V 96 C 0,43 43,0 96,0 h 896 c 53,0 127,31 164,68 z M 1024,136 v 376 h 376 c -6,-17 -15,-34 -22,-41 L 1065,158 c -7,-7 -24,-16 -41,-22 z m 384,1528 V 640 H 992 c -53,0 -96,-43 -96,-96 V 128 H 128 v 1536 z" />
</svg>
