<?xml version="1.0" encoding="UTF-8" standalone="no"?>
<svg
   xmlns:dc="http://purl.org/dc/elements/1.1/"
   xmlns:cc="http://creativecommons.org/ns#"
   xmlns:rdf="http://www.w3.org/1999/02/22-rdf-syntax-ns#"
   xmlns:svg="http://www.w3.org/2000/svg"
   xmlns="http://www.w3.org/2000/svg"
   id="svg2651"
   version="1.1"
   height="1408"
   width="1664">
  <metadata
     id="metadata2657">
    <rdf:RDF>
      <cc:Work
         rdf:about="">
        <dc:format>image/svg+xml</dc:format>
        <dc:type
           rdf:resource="http://purl.org/dc/dcmitype/StillImage" />
        <dc:title></dc:title>
      </cc:Work>
    </rdf:RDF>
  </metadata>
  <defs
     id="defs2655" />
  <path
     id="path2649"
     d="M 1536,1184 V 480 c 0,-53 -43,-96 -96,-96 H 736 c -53,0 -96,-43 -96,-96 v -64 c 0,-53 -43,-96 -96,-96 H 224 c -53,0 -96,43 -96,96 v 960 c 0,53 43,96 96,96 h 1216 c 53,0 96,-43 96,-96 z m 128,-704 v 704 c 0,123 -101,224 -224,224 H 224 C 101,1408 0,1307 0,1184 V 224 C 0,101 101,0 224,0 h 320 c 123,0 224,101 224,224 v 32 h 672 c 123,0 224,101 224,224 z" />
</svg>
