<?xml version="1.0" encoding="UTF-8" standalone="no"?>
<svg
   xmlns:dc="http://purl.org/dc/elements/1.1/"
   xmlns:cc="http://creativecommons.org/ns#"
   xmlns:rdf="http://www.w3.org/1999/02/22-rdf-syntax-ns#"
   xmlns:svg="http://www.w3.org/2000/svg"
   xmlns="http://www.w3.org/2000/svg"
   width="1664"
   height="1408"
   version="1.1"
   id="svg2651">
  <metadata
     id="metadata2657">
    <rdf:RDF>
      <cc:Work
         rdf:about="">
        <dc:format>image/svg+xml</dc:format>
        <dc:type
           rdf:resource="http://purl.org/dc/dcmitype/StillImage" />
        <dc:title></dc:title>
      </cc:Work>
    </rdf:RDF>
  </metadata>
  <defs
     id="defs2655" />
  <path
     d="M 1536,1184 V 480 c 0,-53 -43,-96 -96,-96 H 736 c -53,0 -96,-43 -96,-96 v -64 c 0,-53 -43,-96 -96,-96 H 224 c -53,0 -96,43 -96,96 v 960 c 0,53 43,96 96,96 h 1216 c 53,0 96,-43 96,-96 z m 128,-704 v 704 c 0,123 -101,224 -224,224 H 224 C 101,1408 0,1307 0,1184 V 224 C 0,101 101,0 224,0 h 320 c 123,0 224,101 224,224 v 32 h 672 c 123,0 224,101 224,224 z"
     id="path2649" />
  <g
     id="text1372"
     style="font-style:normal;font-variant:normal;font-weight:normal;font-stretch:normal;font-size:40px;line-height:1.25;font-family:QUAKE2;-inkscape-font-specification:QUAKE2;letter-spacing:0px;word-spacing:0px;fill:#000000;fill-opacity:1;stroke:none"
     aria-label="+">
    <path
       id="path1374"
       style="font-style:normal;font-variant:normal;font-weight:bold;font-stretch:normal;font-size:933.33331299px;font-family:sans-serif;-inkscape-font-specification:'sans-serif Bold';font-variant-ligatures:normal;font-variant-caps:normal;font-variant-numeric:normal;font-feature-settings:normal;text-align:start;writing-mode:lr-tb;text-anchor:start"
       d="M 886.23176,542.23353 V 781.03561 H 1124.1224 V 888.58769 H 886.23176 V 1127.3898 H 777.76822 V 888.58769 H 539.8776 V 781.03561 H 777.76822 V 542.23353 Z" />
  </g>
</svg>
