<?xml version="1.0" encoding="UTF-8" standalone="no"?>
<svg
   xmlns:dc="http://purl.org/dc/elements/1.1/"
   xmlns:cc="http://creativecommons.org/ns#"
   xmlns:rdf="http://www.w3.org/1999/02/22-rdf-syntax-ns#"
   xmlns:svg="http://www.w3.org/2000/svg"
   xmlns="http://www.w3.org/2000/svg"
   height="117.4"
   width="465.55026"
   xml:space="preserve"
   enable-background="new 0 0 429 117.3"
   viewBox="0 0 465.55026 117.4"
   y="0px"
   x="0px"
   id="Layer_1"
   version="1.1"><metadata
   id="metadata1095"><rdf:RDF><cc:Work
       rdf:about=""><dc:format>image/svg+xml</dc:format><dc:type
         rdf:resource="http://purl.org/dc/dcmitype/StillImage" /><dc:title></dc:title></cc:Work></rdf:RDF></metadata><defs
   id="defs1093" />
<g
   id="g1068">
	<linearGradient
   y2="-9.094947e-13"
   x2="58.666"
   y1="117.332"
   x1="58.666"
   gradientUnits="userSpaceOnUse"
   id="SVGID_1_">
		<stop
   id="stop1037"
   style="stop-color:#0882C8"
   offset="0" />
		<stop
   id="stop1039"
   style="stop-color:#26B6DB"
   offset="1" />
	</linearGradient>
	<circle
   style="fill:url(#SVGID_1_)"
   id="circle1042"
   r="58.700001"
   cy="58.700001"
   cx="58.700001" />
	
<path
   id="path1207"
   d="m 34.476623,98.17466 c -3.634317,-1.470167 -5.659504,-4.588719 -5.665394,-8.724049 -0.0059,-4.14074 1.27262,-5.96143 8.233097,-11.724476 1.416055,-1.172447 4.816021,-4.733082 7.555477,-7.912518 6.572617,-7.62824 9.275144,-9.376587 13.605914,-8.802087 3.923344,0.520449 5.93234,2.333288 11.235736,10.138702 1.996469,2.938352 4.212622,5.830258 4.924784,6.426455 0.712163,0.596193 3.418819,2.127797 6.014792,3.403562 6.932134,3.406728 7.900484,4.456474 7.884944,8.547772 -0.0197,5.183224 -3.2019,7.811679 -9.895081,8.173159 -2.839103,0.15333 -4.537418,-0.0113 -9.993201,-0.968584 -9.504525,-1.667723 -12.742072,-1.610468 -19.540794,0.345574 -6.495306,1.86875 -11.50552,2.25131 -14.360274,1.09649 z M 21.545247,75.71511 c -4.167113,-0.731774 -7.989552,-5.629315 -8.993533,-11.523053 -0.350395,-2.05696 -0.324193,-2.913554 0.162007,-5.296142 1.056937,-5.179447 4.337442,-10.319858 7.724643,-12.104182 1.69132,-0.890961 4.411743,-0.834601 6.193085,0.128309 5.296934,2.863266 7.792428,8.919587 6.5547,15.907602 -1.579819,8.919399 -6.050782,13.869132 -11.640902,12.887466 z m 62.067026,-0.935805 c -1.38461,-0.723329 -2.19109,-1.463406 -2.971689,-2.726981 -1.015734,-1.644209 -1.071131,-1.929259 -1.067176,-5.491241 0.0036,-3.243995 0.130976,-4.059237 0.932831,-5.970355 2.381724,-5.676523 6.724364,-11.473356 10.059264,-13.427734 1.63423,-0.95773 4.23419,-1.457618 5.68599,-1.09324 1.46248,0.367058 3.59014,2.541405 4.470617,4.568705 0.60177,1.385581 0.85093,2.772104 0.97337,5.416559 0.14555,3.143631 0.0603,3.85402 -0.73768,6.148692 -2.007377,5.772209 -5.975307,11.016684 -9.618617,12.713088 -2.59317,1.207433 -5.24267,1.16029 -7.72691,-0.137493 z M 40.22441,48.614541 c -2.72398,-0.961076 -4.684135,-2.979188 -6.590069,-6.78493 -4.086091,-8.15904 -3.528297,-16.685757 1.444448,-22.080547 2.157837,-2.340976 3.829921,-3.101685 6.854474,-3.118423 2.168719,-0.01201 2.716831,0.121871 4.016212,0.980912 1.932172,1.277393 4.050728,4.561678 4.851997,7.521799 1.248465,4.612209 0.197191,14.732654 -1.981774,19.078217 -1.921404,3.831898 -5.303492,5.564388 -8.595288,4.402972 z m 30.817935,0.330787 c -0.195408,-0.06212 -0.804406,-0.212284 -1.353328,-0.333704 -1.631933,-0.360971 -3.933661,-2.789343 -5.148282,-5.431546 -2.182482,-4.747618 -3.36297,-11.843196 -2.629863,-15.807361 0.620772,-3.356743 2.565933,-6.991377 4.867188,-9.094595 3.3239,-3.037858 7.83426,-3.906102 10.896921,-2.097658 4.278452,2.526347 6.435962,7.008576 6.452102,13.404261 0.0208,8.239024 -3.4275,15.856829 -8.274097,18.278725 -1.528211,0.763661 -4.03689,1.327847 -4.810641,1.081878 z"
   style="fill:#ffffff;fill-opacity:1;stroke-width:0.99999994" /></g>

<g
   id="text1118"
   style="font-style:normal;font-variant:normal;font-weight:normal;font-stretch:normal;font-size:40px;line-height:1.25;font-family:QUAKE2;-inkscape-font-specification:QUAKE2;letter-spacing:0px;word-spacing:0px;fill:#0891d1;fill-opacity:1;stroke:none"
   aria-label="NyanShare"><path
     id="path915"
     style="font-style:normal;font-variant:normal;font-weight:bold;font-stretch:normal;font-size:74.66666412px;font-family:'Ubuntu Mono';-inkscape-font-specification:'Ubuntu Mono Bold';fill:#0891d1;fill-opacity:1"
     d="m 158.67029,81.144913 q -3.136,-7.690667 -6.86934,-15.306666 -3.65866,-7.690667 -7.91466,-15.381333 v 30.687999 h -8.288 V 34.926248 h 7.392 q 2.09066,3.285333 4.18133,7.167999 2.09067,3.808 4.032,7.616 2.016,3.808 3.65867,7.392 1.71733,3.584 2.912,6.272 V 34.926248 h 8.288 v 46.218665 z" /><path
     id="path917"
     style="font-style:normal;font-variant:normal;font-weight:bold;font-stretch:normal;font-size:74.66666412px;font-family:'Ubuntu Mono';-inkscape-font-specification:'Ubuntu Mono Bold';fill:#0891d1;fill-opacity:1"
     d="m 204.73962,46.051581 q -1.41867,4.927999 -2.76267,9.706666 -1.26933,4.704 -2.688,9.258666 -1.41867,4.48 -3.06133,8.810667 -1.568,4.330666 -3.43467,8.437333 -1.41867,2.986666 -2.83733,5.152 -1.344,2.165333 -3.06134,3.509333 -1.64266,1.418666 -3.73333,2.090666 -2.016,0.672 -4.77866,0.672 -2.31467,0 -4.256,-0.373333 -1.86667,-0.373333 -3.136,-0.970667 l 1.71733,-7.690666 q 1.49333,0.672 2.61333,0.896 1.19467,0.298667 2.53867,0.298667 2.688,0 4.33066,-1.792 1.64267,-1.792 2.61334,-4.256 -3.28534,-6.570667 -6.57067,-15.008 -3.28533,-8.511999 -5.97333,-18.741332 h 9.55733 q 0.672,2.762666 1.49333,5.898666 0.896,3.136 1.86667,6.272 0.97067,3.136 2.016,6.197333 1.12,2.986667 2.24,5.6 0.74667,-2.613333 1.568,-5.6 0.82133,-3.061333 1.568,-6.122667 0.74667,-3.135999 1.41867,-6.271999 0.74666,-3.136 1.344,-5.973333 z" /><path
     id="path919"
     style="font-style:normal;font-variant:normal;font-weight:bold;font-stretch:normal;font-size:74.66666412px;font-family:'Ubuntu Mono';-inkscape-font-specification:'Ubuntu Mono Bold';fill:#0891d1;fill-opacity:1"
     d="m 225.57162,74.574246 q 1.49333,0 2.912,0 1.41866,-0.07467 2.464,-0.224 v -8.063999 q -0.896,-0.149334 -2.16534,-0.224 -1.26933,-0.149334 -2.31466,-0.149334 -1.41867,0 -2.76267,0.224 -1.344,0.149334 -2.38933,0.597334 -0.97067,0.448 -1.568,1.269333 -0.59734,0.821333 -0.59734,2.165333 0,2.389333 1.792,3.434667 1.792,0.970666 4.62934,0.970666 z m -0.82134,-29.418665 q 4.33067,0 7.168,1.045333 2.912,0.970667 4.62934,2.837333 1.71733,1.792 2.464,4.48 0.74666,2.613333 0.74666,5.898666 v 20.906666 q -2.016,0.448 -5.97333,1.045334 -3.95733,0.597333 -8.88533,0.597333 -3.36,0 -6.12267,-0.597333 -2.688,-0.597334 -4.62933,-1.941334 -1.94134,-1.418666 -2.98667,-3.583999 -1.04533,-2.24 -1.04533,-5.450667 0,-3.061333 1.19466,-5.152 1.19467,-2.090666 3.21067,-3.36 2.016,-1.269333 4.62933,-1.792 2.61334,-0.597333 5.45067,-0.597333 3.584,0 6.34667,0.597333 v -1.12 q 0,-2.613333 -1.64267,-4.330666 -1.64267,-1.792 -5.67467,-1.792 -2.61333,0 -5.07733,0.373333 -2.38933,0.373334 -3.88267,0.896 l -1.26933,-7.391999 q 1.71733,-0.597334 4.85333,-1.045334 3.136,-0.522666 6.496,-0.522666 z" /><path
     id="path921"
     style="font-style:normal;font-variant:normal;font-weight:bold;font-stretch:normal;font-size:74.66666412px;font-family:'Ubuntu Mono';-inkscape-font-specification:'Ubuntu Mono Bold';fill:#0891d1;fill-opacity:1"
     d="m 248.86762,47.171581 q 2.464,-0.672 6.048,-1.269334 3.65867,-0.597333 7.91467,-0.597333 4.18133,0 6.944,1.194667 2.76266,1.12 4.33066,3.285333 1.64267,2.090666 2.31467,5.077333 0.672,2.912 0.672,6.496 v 19.786666 h -9.184 v -18.592 q 0,-4.927999 -1.12,-7.093333 -1.12,-2.165333 -4.55467,-2.165333 -1.04533,0 -2.09066,0.07467 -0.97067,0.07467 -2.09067,0.224 v 27.551999 h -9.184 z" /><path
     id="path923"
     style="font-style:normal;font-variant:normal;font-weight:bold;font-stretch:normal;font-size:74.66666412px;font-family:'Ubuntu Mono';-inkscape-font-specification:'Ubuntu Mono Bold';fill:#0891d1;fill-opacity:1"
     d="m 298.81961,74.424913 q 2.31467,0 3.808,-0.448 1.568,-0.522667 2.464,-1.344 0.896,-0.896 1.19467,-1.941333 0.37333,-1.12 0.37333,-2.24 0,-1.418667 -0.82133,-2.538667 -0.82133,-1.12 -2.09067,-1.941333 -1.26933,-0.896 -2.83733,-1.568 -1.568,-0.746667 -3.136,-1.344 -2.09067,-0.746667 -4.33067,-1.717333 -2.24,-0.970667 -4.10666,-2.464 -1.792,-1.493333 -2.98667,-3.658667 -1.19467,-2.24 -1.19467,-5.525333 0,-6.496 4.18134,-10.154666 4.256,-3.658667 11.648,-3.658667 4.256,0 7.392,0.970667 3.21066,0.970667 5.376,2.165333 l -2.688,7.093333 q -1.86667,-1.045333 -4.18134,-1.792 -2.24,-0.746666 -5.22666,-0.746666 -7.31734,0 -7.31734,5.301333 0,1.344 0.74667,2.389333 0.74667,0.970667 1.86667,1.792 1.19466,0.746667 2.61333,1.344 1.49333,0.597333 2.912,1.12 2.16533,0.821333 4.48,1.866667 2.38933,0.970666 4.33067,2.688 2.016,1.642666 3.28533,4.181333 1.26933,2.464 1.26933,6.271999 0,6.496 -4.256,10.08 -4.18133,3.509333 -12.768,3.509333 -5.74933,0 -9.184,-1.194666 -3.43466,-1.269334 -5.152,-2.314667 l 2.688,-7.466666 q 2.016,1.194666 4.77867,2.24 2.83733,1.045333 6.86933,1.045333 z" /><path
     id="path925"
     style="font-style:normal;font-variant:normal;font-weight:bold;font-stretch:normal;font-size:74.66666412px;font-family:'Ubuntu Mono';-inkscape-font-specification:'Ubuntu Mono Bold';fill:#0891d1;fill-opacity:1"
     d="M 323.53428,81.144913 V 30.894248 l 9.184,-1.568 v 17.023999 q 1.12,-0.373333 2.688,-0.672 1.568,-0.373333 2.76266,-0.373333 3.88267,0 6.496,1.194667 2.61334,1.12 4.18134,3.285333 1.568,2.090666 2.24,5.077333 0.672,2.912 0.672,6.496 v 19.786666 h -9.184 v -18.592 q 0,-4.927999 -1.12,-7.093333 -1.12,-2.165333 -4.256,-2.165333 -1.26934,0 -2.53867,0.298667 -1.19467,0.298666 -1.94133,0.522666 v 27.029333 z" /><path
     id="path927"
     style="font-style:normal;font-variant:normal;font-weight:bold;font-stretch:normal;font-size:74.66666412px;font-family:'Ubuntu Mono';-inkscape-font-specification:'Ubuntu Mono Bold';fill:#0891d1;fill-opacity:1"
     d="m 374.90495,74.574246 q 1.49334,0 2.912,0 1.41867,-0.07467 2.464,-0.224 v -8.063999 q -0.896,-0.149334 -2.16533,-0.224 -1.26933,-0.149334 -2.31467,-0.149334 -1.41866,0 -2.76266,0.224 -1.344,0.149334 -2.38934,0.597334 -0.97066,0.448 -1.568,1.269333 -0.59733,0.821333 -0.59733,2.165333 0,2.389333 1.792,3.434667 1.792,0.970666 4.62933,0.970666 z m -0.82133,-29.418665 q 4.33067,0 7.168,1.045333 2.912,0.970667 4.62933,2.837333 1.71734,1.792 2.464,4.48 0.74667,2.613333 0.74667,5.898666 v 20.906666 q -2.016,0.448 -5.97333,1.045334 -3.95734,0.597333 -8.88534,0.597333 -3.36,0 -6.12266,-0.597333 -2.688,-0.597334 -4.62934,-1.941334 -1.94133,-1.418666 -2.98666,-3.583999 -1.04534,-2.24 -1.04534,-5.450667 0,-3.061333 1.19467,-5.152 1.19467,-2.090666 3.21067,-3.36 2.016,-1.269333 4.62933,-1.792 2.61333,-0.597333 5.45067,-0.597333 3.584,0 6.34666,0.597333 v -1.12 q 0,-2.613333 -1.64266,-4.330666 -1.64267,-1.792 -5.67467,-1.792 -2.61333,0 -5.07733,0.373333 -2.38934,0.373334 -3.88267,0.896 l -1.26933,-7.391999 q 1.71733,-0.597334 4.85333,-1.045334 3.136,-0.522666 6.496,-0.522666 z" /><path
     id="path929"
     style="font-style:normal;font-variant:normal;font-weight:bold;font-stretch:normal;font-size:74.66666412px;font-family:'Ubuntu Mono';-inkscape-font-specification:'Ubuntu Mono Bold';fill:#0891d1;fill-opacity:1"
     d="m 426.12627,55.384914 q -0.896,-0.224 -2.16534,-0.448 -1.19466,-0.224 -2.464,-0.373334 -1.26933,-0.224 -2.464,-0.298666 -1.19466,-0.07467 -2.016,-0.07467 -1.94133,0 -3.808,0.224 -1.86666,0.149333 -3.808,0.672 v 26.058666 h -9.25866 V 48.366247 q 3.65866,-1.344 7.46666,-2.165333 3.88267,-0.821333 9.03467,-0.821333 0.74667,0 2.09067,0.07467 1.41866,0.07467 2.98666,0.298667 1.568,0.149333 3.136,0.448 1.64267,0.224 2.912,0.672 z" /><path
     id="path931"
     style="font-style:normal;font-variant:normal;font-weight:bold;font-stretch:normal;font-size:74.66666412px;font-family:'Ubuntu Mono';-inkscape-font-specification:'Ubuntu Mono Bold';fill:#0891d1;fill-opacity:1"
     d="m 433.14494,63.896913 q 0,-4.629333 1.41867,-8.138666 1.41867,-3.509333 3.73333,-5.824 2.31467,-2.389333 5.30134,-3.584 2.98666,-1.194666 6.12266,-1.194666 7.76534,0 11.79734,4.629333 4.032,4.554666 4.032,13.365333 0,0.896 -0.0747,1.866666 0,0.970667 -0.0747,1.568 h -22.77333 q 0,3.434667 2.83733,5.450667 2.83734,1.941333 7.31734,1.941333 2.76266,0 5.22666,-0.597333 2.53867,-0.597334 4.256,-1.194667 l 1.26934,7.84 q -2.38934,0.821333 -5.07734,1.344 -2.688,0.597333 -6.048,0.597333 -4.48,0 -8.064,-1.12 -3.50933,-1.194667 -6.048,-3.434666 -2.464,-2.314667 -3.808,-5.674667 -1.344,-3.36 -1.344,-7.84 z m 23.52,-3.658666 q 0,-1.418667 -0.37333,-2.688 -0.37333,-1.344 -1.19467,-2.389333 -0.82133,-1.045334 -2.09066,-1.642667 -1.26934,-0.672 -3.136,-0.672 -1.792,0 -3.136,0.597333 -1.26934,0.597334 -2.16534,1.642667 -0.82133,1.045333 -1.344,2.389333 -0.448,1.344 -0.59733,2.762667 z" /></g>
</svg>