<?xml version="1.0" encoding="UTF-8" standalone="no"?>
<svg
   xmlns:dc="http://purl.org/dc/elements/1.1/"
   xmlns:cc="http://creativecommons.org/ns#"
   xmlns:rdf="http://www.w3.org/1999/02/22-rdf-syntax-ns#"
   xmlns:svg="http://www.w3.org/2000/svg"
   xmlns="http://www.w3.org/2000/svg"
   xmlns:xlink="http://www.w3.org/1999/xlink"
   height="117.4"
   width="117.4"
   xml:space="preserve"
   enable-background="new 0 0 429 117.3"
   viewBox="0 0 117.4 117.4"
   y="0px"
   x="0px"
   id="Layer_1"
   version="1.1"><metadata
   id="metadata1095"><rdf:RDF><cc:Work
       rdf:about=""><dc:format>image/svg+xml</dc:format><dc:type
         rdf:resource="http://purl.org/dc/dcmitype/StillImage" /><dc:title></dc:title></cc:Work></rdf:RDF></metadata><defs
   id="defs1093"><linearGradient
     y2="-9.094947e-13"
     x2="58.666"
     y1="117.332"
     x1="58.666"
     gradientUnits="userSpaceOnUse"
     id="linearGradient2047"
     xlink:href="#SVGID_1_" /></defs>
<g
   id="g1068">
	<linearGradient
   y2="-9.094947e-13"
   x2="58.666"
   y1="117.332"
   x1="58.666"
   gradientUnits="userSpaceOnUse"
   id="SVGID_1_">
		<stop
   id="stop1037"
   style="stop-color:#0882C8"
   offset="0" />
		<stop
   id="stop1039"
   style="stop-color:#26B6DB"
   offset="1" />
	</linearGradient>
	<path
   id="circle1042"
   d="M 58.699219 0 A 58.700001 58.700001 0 0 0 0 58.699219 A 58.700001 58.700001 0 0 0 58.699219 117.40039 A 58.700001 58.700001 0 0 0 60.691406 117.33008 A 42.430164 42.430164 0 0 1 36.445312 79.050781 A 42.430164 42.430164 0 0 1 78.875 36.621094 A 42.430164 42.430164 0 0 1 117.2793 61.123047 A 58.700001 58.700001 0 0 0 117.40039 58.699219 A 58.700001 58.700001 0 0 0 58.699219 0 z "
   style="fill:url(#linearGradient2047)" />
	
<path
   id="path1207"
   d="m 34.476623,98.17466 c -3.634317,-1.470167 -5.659504,-4.588719 -5.665394,-8.724049 -0.0059,-4.14074 1.27262,-5.96143 8.233097,-11.724476 1.416055,-1.172447 4.816021,-4.733082 7.555477,-7.912518 6.572617,-7.62824 9.275144,-9.376587 13.605914,-8.802087 3.923344,0.520449 5.93234,2.333288 11.235736,10.138702 1.996469,2.938352 4.212622,5.830258 4.924784,6.426455 0.712163,0.596193 3.418819,2.127797 6.014792,3.403562 6.932134,3.406728 7.900484,4.456474 7.884944,8.547772 -0.0197,5.183224 -3.2019,7.811679 -9.895081,8.173159 -2.839103,0.15333 -4.537418,-0.0113 -9.993201,-0.968584 -9.504525,-1.667723 -12.742072,-1.610468 -19.540794,0.345574 -6.495306,1.86875 -11.50552,2.25131 -14.360274,1.09649 z M 21.545247,75.71511 c -4.167113,-0.731774 -7.989552,-5.629315 -8.993533,-11.523053 -0.350395,-2.05696 -0.324193,-2.913554 0.162007,-5.296142 1.056937,-5.179447 4.337442,-10.319858 7.724643,-12.104182 1.69132,-0.890961 4.411743,-0.834601 6.193085,0.128309 5.296934,2.863266 7.792428,8.919587 6.5547,15.907602 -1.579819,8.919399 -6.050782,13.869132 -11.640902,12.887466 z m 62.067026,-0.935805 c -1.38461,-0.723329 -2.19109,-1.463406 -2.971689,-2.726981 -1.015734,-1.644209 -1.071131,-1.929259 -1.067176,-5.491241 0.0036,-3.243995 0.130976,-4.059237 0.932831,-5.970355 2.381724,-5.676523 6.724364,-11.473356 10.059264,-13.427734 1.63423,-0.95773 4.23419,-1.457618 5.68599,-1.09324 1.46248,0.367058 3.59014,2.541405 4.470617,4.568705 0.60177,1.385581 0.85093,2.772104 0.97337,5.416559 0.14555,3.143631 0.0603,3.85402 -0.73768,6.148692 -2.007377,5.772209 -5.975307,11.016684 -9.618617,12.713088 -2.59317,1.207433 -5.24267,1.16029 -7.72691,-0.137493 z M 40.22441,48.614541 c -2.72398,-0.961076 -4.684135,-2.979188 -6.590069,-6.78493 -4.086091,-8.15904 -3.528297,-16.685757 1.444448,-22.080547 2.157837,-2.340976 3.829921,-3.101685 6.854474,-3.118423 2.168719,-0.01201 2.716831,0.121871 4.016212,0.980912 1.932172,1.277393 4.050728,4.561678 4.851997,7.521799 1.248465,4.612209 0.197191,14.732654 -1.981774,19.078217 -1.921404,3.831898 -5.303492,5.564388 -8.595288,4.402972 z m 30.817935,0.330787 c -0.195408,-0.06212 -0.804406,-0.212284 -1.353328,-0.333704 -1.631933,-0.360971 -3.933661,-2.789343 -5.148282,-5.431546 -2.182482,-4.747618 -3.36297,-11.843196 -2.629863,-15.807361 0.620772,-3.356743 2.565933,-6.991377 4.867188,-9.094595 3.3239,-3.037858 7.83426,-3.906102 10.896921,-2.097658 4.278452,2.526347 6.435962,7.008576 6.452102,13.404261 0.0208,8.239024 -3.4275,15.856829 -8.274097,18.278725 -1.528211,0.763661 -4.03689,1.327847 -4.810641,1.081878 z"
   style="fill:#ffffff;fill-opacity:1;stroke-width:0.99999994" /></g>

<circle
   r="38.348274"
   cy="79.051727"
   cx="78.875252"
   id="path1999"
   style="opacity:1;vector-effect:none;fill:#000000;fill-opacity:1;stroke:none;stroke-width:0.99999994;stroke-linecap:butt;stroke-linejoin:miter;stroke-miterlimit:4;stroke-dasharray:none;stroke-dashoffset:0;stroke-opacity:1;paint-order:normal" /><g
   id="text2053"
   style="font-style:normal;font-variant:normal;font-weight:bold;font-stretch:normal;font-size:40px;line-height:1.25;font-family:wasy10;-inkscape-font-specification:'wasy10 Bold';letter-spacing:0px;word-spacing:0px;fill:#fcffff;fill-opacity:1;stroke:none"
   aria-label="!"><path
     d="m 73.720703,46.589844 a 0.7718867,0.7718867 0 0 0 -0.722656,1.042968 c 1.29712,3.458988 3.295594,6.429609 5.935547,8.916016 -6.122013,0.213415 -11.497132,2.461492 -15.941406,6.824219 a 0.7718867,0.7718867 0 0 0 -0.0039,0.0059 c -4.668508,4.668509 -7.039062,10.3396 -7.039062,16.857422 0,6.636816 2.367848,12.331945 7.039062,16.919922 4.628858,4.62886 10.30082,6.97656 16.857422,6.97656 6.475675,0 12.144202,-2.34701 16.853516,-6.970701 4.674621,-4.588847 7.042971,-10.286529 7.042971,-16.925781 0,-6.517822 -2.37056,-12.188913 -7.039065,-16.857422 a 0.7718867,0.7718867 0 0 0 -0.08203,-0.07227 c -0.290156,-0.217617 -0.662696,-0.341797 -1.025391,-0.341797 -0.389573,0 -0.808957,0.09363 -1.132812,0.392578 -0.323856,0.298943 -0.451172,0.739552 -0.451172,1.128906 0,0.438678 0.161413,0.944303 0.558593,1.242188 l -0.08203,-0.07227 c 4.081352,4.081351 6.085939,8.889363 6.085939,14.580078 0,5.690715 -2.00673,10.543024 -6.091798,14.708984 -4.035556,4.033153 -8.860742,6.019528 -14.636719,6.019528 -5.775977,0 -10.601163,-1.986375 -14.636719,-6.019528 -4.085067,-4.16596 -6.091796,-9.018269 -6.091796,-14.708984 0,-5.690714 2.004586,-10.498727 6.085937,-14.580078 3.789269,-3.789269 8.257701,-5.712326 13.462891,-5.978516 C 76.178045,62.118836 74.282606,65.031598 73,68.398438 a 0.7718867,0.7718867 0 0 0 0.720703,1.046874 h 1.9375 a 0.7718867,0.7718867 0 0 0 0.71875,-0.492187 c 1.813183,-4.673983 4.887594,-8.063914 9.314453,-10.277344 a 0.7718867,0.7718867 0 0 0 -0.0078,-1.382812 c -4.379205,-2.129338 -7.45141,-5.496105 -9.306641,-10.214844 a 0.7718867,0.7718867 0 0 0 -0.71875,-0.488281 z"
     id="path2097"
     style="font-style:normal;font-variant:normal;font-weight:normal;font-stretch:normal;font-size:64px;font-family:wasy10;-inkscape-font-specification:wasy10;fill:#fcffff;fill-opacity:1" /></g></svg>